# xmcd
#
# Track frame offsets: 
#        150
#        21162
#        41339
#        61782
#        87917
#        107787
#        128089
#        149238
#        173528
#        194927
#        221148
#        241541
#        261979
#
# Disc length: 3863 seconds
#
# Revision: 1
# Processed by: cddbd v1.5.2PL0 Copyright (c) Steve Scherf et al.
# Submitted via: ExactAudioCopy v1.0b3
#
DISCID=bd0f150d
DTITLE=SHOTA SHIMIZU - MELODY
DYEAR=2012
DGENRE=Pop
TTITLE0=白い恋人達
TTITLE1=レイニーブルー
TTITLE2=Aitai
TTITLE3=366日
TTITLE4=Forget-me-not
TTITLE5=夏の終りのハーモニー
TTITLE6=素直
TTITLE7=even if
TTITLE8=誰より好きなのに
TTITLE9=let go ~maison de m-flo~
TTITLE10=化粧
TTITLE11=三日月
TTITLE12=今夜はブギー・バックSMOOTH RAP
EXTD=
EXTT0=
EXTT1=
EXTT2=
EXTT3=
EXTT4=
EXTT5=
EXTT6=
EXTT7=
EXTT8=
EXTT9=
EXTT10=
EXTT11=
EXTT12=
PLAYORDER=
